<?xml version="1.0" encoding="utf-8"?>
<!-- Generator: Adobe Illustrator 13.0.2, SVG Export Plug-In . SVG Version: 6.00 Build 14948)  -->
<!DOCTYPE svg PUBLIC "-//W3C//DTD SVG 1.1//EN" "http://www.w3.org/Graphics/SVG/1.1/DTD/svg11.dtd">
<svg version="1.1" id="Layer_1" xmlns="http://www.w3.org/2000/svg" xmlns:xlink="http://www.w3.org/1999/xlink" x="0px" y="0px"
	 width="258.92px" height="107.738px" viewBox="0 0 258.92 107.738" enable-background="new 0 0 258.92 107.738"
	 xml:space="preserve">
<g enable-background="new    ">
	<path fill="#FFFFFF" d="M54.811,58.422h-7.082c0.131-0.787,0.263-1.508,0.459-2.229c0.262-1.64,1.64-9.639,1.967-11.475
		l2.36-14.425l-21.376,28.13h-7.017c0.459-3.017,0.787-5.771,1.115-8.59c0.394-3.082,0.722-6.164,1.115-9.245l1.836-15.541
		c0.394-2.558,0.722-5.18,1.049-7.804c0.328-2.557,0.328-3.016,0.459-4.72l-6.426-0.066l0.918-1.901
		c0.262,0,6.623,0.065,14.557,0.065c3.672,0,7.278,0,10.885-0.065l-0.721,1.836l-4.197,0.065c-1.443,5.967-2.033,9.311-3.016,14.885
		L38.68,44.848l14.492-19.016l2.36-13.377l-4.065-0.065l0.721-1.836c3.738,0.065,7.476,0.065,11.213,0.065
		c4.262,0,8.459,0,12.655-0.065l-0.918,1.901l-5.639,0.066c-0.59,2.951-0.918,4.262-3.672,16.13l-3.869,16.459l16.393-22.426
		c2.361-3.278,5.049-6.885,6.688-10.163l-6.098-0.066l0.918-1.901c1.246,0,7.147,0.065,8.524,0.065c2.229,0,4.459,0,6.688-0.065
		l-0.984,1.901l-5.442,0.066L54.811,58.422z"/>
	<path fill="#FFFFFF" d="M132.704,54.881l6.359,0.066l-0.787,1.9c-0.853,0-11.475-0.065-15.605-0.065c-3.935,0-7.934,0-11.869,0.065
		l0.787-1.9l5.967-0.066l0.394-1.18c1.967-4.983,2.164-5.574,3.869-9.835l11.475-31.212H132.9l-20.459,30.031
		c-5.049,7.279-6.295,9.312-8.852,13.115h-3.082l3.41-42.884h-0.393l-9.049,22.491c-5.18,13.442-5.705,14.95-7.213,19.475
		l6.295,0.066l-0.852,1.9c-1.115,0-6.688-0.065-8-0.065c-2.164,0-5.246,0-7.541,0.065l0.787-1.9l6.098-0.066l17.115-42.359
		l-6.426-0.066l0.787-1.901h1.967c1.508,0.065,8.983,0.131,10.032,0.131c4.656,0,6.558-0.131,9.443-0.328l-2.427,25.508
		l10.623-15.475c4.917-7.213,5.639-8.197,6.754-10.033c1.639,0.066,2.95,0.197,4.59,0.262c1.573,0,3.475,0.066,6.099,0.066
		c3.736,0,7.736-0.066,11.475-0.131l-0.722,1.901l-5.836,0.066L132.704,54.881z"/>
	<path fill="#FFFFFF" d="M188.563,40.782c-1.968,4.722-2.623,6.295-6.558,16.065h-6.164c-0.524-3.803-0.918-5.77-2.163-11.999
		l-5.771-29.114l-11.081,27.802c-2.165,5.705-2.886,7.738-4.001,11.344l8.131,0.066l-0.786,1.9c-1.443,0-8.655-0.065-10.229-0.065
		c-2.426,0-4.787,0-7.147,0.065l0.787-1.9l5.967-0.066l16.982-41.573c-0.196-0.262-0.327-0.327-0.72-0.459
		c-0.46-0.13-1.509-0.327-2.361-0.327l-4.064-0.066l0.852-1.901c4.524,0.065,9.05,0.065,13.573,0.065
		c2.557,0,4.918-0.065,7.279-0.13c0.064,0.589,0.195,1.246,0.261,1.835c0.328,1.902,0.854,4.983,1.182,6.885l3.736,21.245
		l6.689-16.458c1.311-3.476,2.229-5.705,4.195-11.475l-6.885-0.066l0.854-1.901c2.098,0.065,4.262,0.065,6.359,0.065
		c3.147,0,6.296,0,9.443-0.065l-0.854,1.901l-5.835,0.066L188.563,40.782z"/>
	<path fill="#FFFFFF" d="M214.065,54.881l5.705,0.066l-0.787,1.9c-4-0.065-8.065-0.065-12.13-0.065c-4.788,0-9.509,0-14.296,0.065
		l0.787-1.9l5.77-0.066c1.509-3.541,1.968-4.721,4.525-11.344l11.868-30.95l-6.492-0.131l0.788-1.901
		c1.77,0,10.426,0.065,12.393,0.065c1.312,0,6.361-0.065,8.328-0.065c2.623,0,3.606-0.065,4.13-0.065
		c3.017,0,5.378,0.13,7.476,0.917c5.836,2.099,6.426,7.279,6.426,9.311c0,2.951-1.18,5.442-2.753,7.147
		c-2.492,2.754-6.426,4.328-13.05,4.328c-1.573,0-3.081-0.132-4.918-0.197c2.033,0.459,4.066,0.984,6.36,2.229
		c3.017,1.573,5.115,3.672,5.901,5.705c0.46,1.18,0.524,2.491,0.591,3.868l-0.131,3.41c-0.196,2.558-0.196,3.279-0.196,3.934
		c0,0.787,0.065,1.508,0.327,2.164c0.524,1.049,1.377,1.311,1.967,1.311c1.64,0,3.279-2.491,4.132-3.737l1.573,1.115
		c-2.164,3.081-3.935,5.639-9.049,5.639c-5.967,0-12.524-3.344-12.524-8.787c0-0.786,0.132-1.573,0.197-2.36l0.524-2.885
		c0.196-1.377,0.394-2.754,0.394-4.197c0-6.688-3.147-6.754-5.509-6.82L214.065,54.881z M223.245,30.423
		c0.722,0.131,1.378,0.262,2.296,0.262c7.212,0,10.95-9.18,10.95-13.508c0-2.688-1.573-4.853-4.787-4.853
		c-1.442,0-1.639,0.524-2.36,2.295L223.245,30.423z"/>
</g>
<g>
	<g enable-background="new    ">
		<path fill="#FFFFFF" d="M31.286,71.379l-2.122,6.089c-1.925,5.499-4.517,12.845-9.271,17.716
			c-2.632,2.671-4.949,3.496-6.481,3.496c-1.61,0-2.553-0.942-2.553-1.965c0-0.863,0.668-1.492,1.414-1.492
			c0.628,0,1.218,0.511,1.257,1.218c0,0.079-0.039,0.472-0.039,0.551c0,0.117,0,0.628,0.668,0.628c0.628,0,1.454-0.432,2.632-1.611
			c4.007-4.006,6.6-11.548,8.72-17.794l2.357-6.835h-3.339l0.393-1.021h3.339c0.786-2.278,2.042-5.853,4.989-8.995
			c2.71-2.868,4.91-3.222,5.932-3.222c2.278,0,3.103,1.689,3.103,2.867c0,1.258-0.903,2.239-2.042,2.239
			c-1.1,0-1.454-0.746-1.454-1.256c0-0.786,0.747-1.062,1.061-1.18c0.589-0.156,0.707-0.195,0.707-0.471
			c0-0.393-0.354-1.179-1.375-1.179c-3.143,0-5.774,6.678-6.953,9.82l-0.511,1.375h4.046l-0.393,1.021H31.286z"/>
	</g>
	<g enable-background="new    ">
		<path fill="#FFFFFF" d="M45.345,82.967c-1.61,2.122-3.692,4.046-6.285,4.046c-1.375,0-2.475-0.707-2.475-2.121
			c0-1.218,0.668-2.593,2.239-5.656l2.161-4.164c0.628-1.218,1.06-2.121,1.06-2.593c0-0.314-0.235-0.628-0.825-0.628
			c-1.689,0-2.71,2.082-3.103,2.906l-0.864-0.393c1.846-4.164,4.713-4.242,5.185-4.242c1.493,0,2.592,1.1,2.592,2.592
			c0,1.101-0.471,2.043-1.493,3.889l-2.592,4.95c-0.55,1.021-1.257,2.317-1.257,3.024c0,0.747,0.668,0.786,0.904,0.786
			c1.493,0,3.535-2.278,4.085-2.946L45.345,82.967z M47.977,62.344c0,1.101-0.864,2.043-2.042,2.043s-2.043-0.903-2.043-2.043
			c0-1.139,0.904-2.043,2.083-2.043C46.995,60.301,47.977,61.047,47.977,62.344z"/>
		<path fill="#FFFFFF" d="M50.096,86.777h-3.653l4.439-8.406c0.825-1.571,2.357-4.557,2.357-5.539c0-0.471-0.197-0.785-0.786-0.785
			c-1.846,0-3.653,2.593-4.4,3.653l-0.746-0.393c0.51-0.786,1.178-1.808,2.161-2.868c1.61-1.689,3.182-2.317,4.203-2.317
			c1.375,0,2.278,0.942,2.278,2.436c0,0.668-0.157,1.375-0.432,2.553c1.925-3.143,4.91-5.225,7.463-5.225
			c1.532,0,3.339,0.746,3.339,2.711c0,1.453-0.903,3.221-2.121,5.657l-1.728,3.299c-0.511,1.021-1.179,2.356-1.179,3.064
			c0,0.746,0.786,0.746,0.903,0.746c1.336,0,3.143-1.846,4.085-2.946l0.668,0.55c-1.611,2.122-3.693,4.046-6.325,4.046
			c-1.375,0-2.475-0.707-2.475-2.121c0-1.218,0.707-2.593,2.239-5.656l1.768-3.3c0.51-0.943,1.1-2.042,1.1-2.828
			c0-0.864-0.667-1.218-1.61-1.218c-4.282,0-7.346,6.206-9.899,11.47L50.096,86.777z"/>
		<path fill="#FFFFFF" d="M80.458,82.534c-0.904,1.297-3.261,4.715-6.835,4.715c-2.671,0-4.91-1.925-4.91-5.618
			c0-6.323,7.11-11.745,11.117-11.745c1.964,0,3.143,1.218,3.143,2.907c0,3.771-5.028,6.01-9.153,6.01
			c-0.354,0-0.747-0.039-1.1-0.039c-0.314,0.629-0.864,1.847-0.864,3.614c0,2.867,2.003,3.3,2.789,3.3
			c2.161,0,4.243-2.632,4.989-3.574L80.458,82.534z M78.022,76.524c1.061-0.746,2.2-2.239,2.2-3.653
			c0-1.217-0.786-1.768-1.454-1.768c-0.786,0-1.493,0.708-1.728,0.982c-1.021,1.021-2.396,2.985-3.732,5.617
			C74.487,77.703,76.373,77.703,78.022,76.524z"/>
		<path fill="#FFFFFF" d="M112.076,82.967c-1.493,1.807-3.339,4.046-5.696,4.046c-2.278,0-2.396-2.16-2.396-2.907
			c0-0.51,0.079-0.863,0.196-1.295c-1.296,2.199-3.653,4.438-6.324,4.438c-2.985,0-3.811-2.75-3.811-4.832
			c0-6.6,6.953-12.531,11.432-12.531c2.671,0,2.828,1.965,2.868,2.711l1.021-2.239h3.378c-0.903,1.768-1.728,3.378-3.653,7.542
			c-0.589,1.297-2.2,4.832-2.2,5.932c0,0.825,0.589,1.218,1.178,1.218c0.825,0,1.807-0.746,3.339-2.632L112.076,82.967z
			 M104.691,79.981c0.667-1.218,2.435-4.438,2.435-6.403c0-1.688-0.903-2.356-2.003-2.356c-3.889,0-7.935,9.702-7.935,12.374
			c0,0.55,0.039,1.885,1.689,1.885C101.587,85.48,103.748,81.671,104.691,79.981z"/>
		<path fill="#FFFFFF" d="M113.33,75.307c1.414-2.278,3.771-5.186,6.246-5.186c0.943,0,2.2,0.628,2.2,2.436
			c0,1.571-0.903,3.457-1.414,4.518c3.221-4.714,5.342-7.071,8.013-7.071c0.629,0,1.807,0,1.807,1.689
			c0,1.729-1.532,3.182-2.593,3.182c-0.589,0-1.139-0.393-1.139-0.942c0-0.197,0.432-0.943,0.432-1.101
			c0-0.274-0.196-0.354-0.471-0.354c-1.375,0-2.946,2.043-3.889,3.378c-3.535,4.872-4.674,7.582-6.088,10.921h-3.693l4.635-9.271
			c1.021-2.121,1.807-3.811,1.807-4.714c0-0.432-0.235-0.707-0.708-0.707c-1.649,0-3.142,1.925-4.438,3.614L113.33,75.307z"/>
		<path fill="#FFFFFF" d="M137.761,71.418l-4.872,10.96c-0.235,0.511-0.784,1.728-0.784,2.121c0,0.629,0.549,0.864,1.021,0.864
			c1.492,0,3.575-2.356,4.085-2.946l0.668,0.55c-2.906,3.85-5.381,4.046-6.088,4.046c-1.964,0-2.75-1.61-2.75-2.631
			c0-0.668,0.315-1.454,0.904-2.79l0.903-1.964c1.924-4.203,2.553-5.734,3.536-8.21h-2.672l0.394-1.061h2.67l1.414-3.339
			c0.354,0.079,0.668,0.157,1.021,0.157c1.021,0,2.318-0.707,3.261-1.218l-2.042,4.399h3.534l-0.353,1.061H137.761z"/>
		<path fill="#FFFFFF" d="M147.187,76.681c0.825,1.492,1.531,2.789,1.531,4.636c0,3.26-2.631,5.932-5.932,5.932
			c-3.103,0-4.791-2.515-4.791-4.047c0-1.099,0.903-2.003,1.924-2.003c1.021,0,1.65,0.864,1.65,1.532c0,0.079,0,0.903-0.904,1.1
			c-0.313,0-0.549,0.039-0.549,0.314c0,0.511,0.981,1.886,2.828,1.886c2.003,0,3.103-1.532,3.103-2.75
			c0-0.786-0.511-1.689-1.217-2.868c-0.982-1.728-1.493-2.985-1.493-4.438c0-3.064,2.71-6.089,6.128-6.089
			c1.925,0,3.3,0.943,3.3,2.278c0,1.101-0.864,1.965-1.729,1.965c-0.51,0-1.138-0.314-1.138-0.982c0-0.157,0.353-0.943,0.353-1.14
			c0-0.55-0.668-0.942-1.414-0.942c-1.335,0-2.867,1.139-2.867,2.593C145.969,74.561,146.716,75.856,147.187,76.681z"/>
		<path fill="#FFFFFF" d="M163.248,75.307c1.415-2.278,3.771-5.186,6.246-5.186c0.942,0,2.2,0.628,2.2,2.436
			c0,1.571-0.904,3.457-1.414,4.518c3.221-4.714,5.343-7.071,8.013-7.071c0.629,0,1.808,0,1.808,1.689
			c0,1.729-1.532,3.182-2.593,3.182c-0.589,0-1.14-0.393-1.14-0.942c0-0.197,0.433-0.943,0.433-1.101
			c0-0.274-0.196-0.354-0.472-0.354c-1.375,0-2.945,2.043-3.888,3.378c-3.536,4.872-4.676,7.582-6.09,10.921h-3.693l4.637-9.271
			c1.021-2.121,1.807-3.811,1.807-4.714c0-0.432-0.235-0.707-0.707-0.707c-1.65,0-3.143,1.925-4.439,3.614L163.248,75.307z"/>
		<path fill="#FFFFFF" d="M197.185,82.967c-1.492,1.807-3.338,4.046-5.695,4.046c-2.278,0-2.396-2.16-2.396-2.907
			c0-0.51,0.079-0.863,0.196-1.295c-1.296,2.199-3.652,4.438-6.324,4.438c-2.984,0-3.81-2.75-3.81-4.832
			c0-6.6,6.952-12.531,11.431-12.531c2.672,0,2.828,1.965,2.867,2.711l1.021-2.239h3.379c-0.903,1.768-1.729,3.378-3.653,7.542
			c-0.59,1.297-2.2,4.832-2.2,5.932c0,0.825,0.589,1.218,1.179,1.218c0.824,0,1.807-0.746,3.339-2.632L197.185,82.967z
			 M189.8,79.981c0.668-1.218,2.436-4.438,2.436-6.403c0-1.688-0.903-2.356-2.003-2.356c-3.889,0-7.935,9.702-7.935,12.374
			c0,0.55,0.039,1.885,1.688,1.885C186.697,85.48,188.857,81.671,189.8,79.981z"/>
		<path fill="#FFFFFF" d="M216.98,82.967c-1.1,1.415-3.339,4.046-6.284,4.046c-2.515,0-2.397-2.317-2.358-2.985
			c-1.217,1.729-2.945,3.222-5.066,3.222c-1.886,0-4.32-1.101-4.32-4.871c0-6.718,7.188-12.492,11.312-12.492
			c1.454,0,2.553,0.668,2.396,2.554l4.91-12.099l-3.182-0.472l0.235-0.864c3.653,0.157,5.46-0.314,6.835-0.785l0.472,0.825
			c-1.179,2.002-1.808,3.26-4.086,8.484l-3.731,8.838c-2.161,5.225-2.789,6.992-2.789,7.936c0,0.707,0.275,1.061,0.943,1.061
			c1.414,0,3.182-1.925,4.046-2.946L216.98,82.967z M201.975,84.185c0,0.785,0.197,1.924,1.611,1.924
			c4.596,0,8.21-10.802,8.21-13.159c0-1.139-0.669-1.807-1.729-1.807C205.864,71.143,201.975,80.767,201.975,84.185z"/>
		<path fill="#FFFFFF" d="M227.858,82.967c-1.609,2.122-3.692,4.046-6.285,4.046c-1.374,0-2.475-0.707-2.475-2.121
			c0-1.218,0.668-2.593,2.239-5.656l2.161-4.164c0.628-1.218,1.06-2.121,1.06-2.593c0-0.314-0.235-0.628-0.825-0.628
			c-1.688,0-2.71,2.082-3.103,2.906l-0.864-0.393c1.847-4.164,4.714-4.242,5.186-4.242c1.492,0,2.593,1.1,2.593,2.592
			c0,1.101-0.472,2.043-1.493,3.889l-2.593,4.95c-0.55,1.021-1.257,2.317-1.257,3.024c0,0.747,0.667,0.786,0.903,0.786
			c1.493,0,3.535-2.278,4.086-2.946L227.858,82.967z M230.49,62.344c0,1.101-0.864,2.043-2.042,2.043
			c-1.179,0-2.043-0.903-2.043-2.043c0-1.139,0.903-2.043,2.082-2.043C229.509,60.301,230.49,61.047,230.49,62.344z"/>
		<path fill="#FFFFFF" d="M235.124,87.249c-2.75,0-4.989-2.278-4.989-6.129c0-5.971,5.971-11.234,10.292-11.234
			c3.103,0,4.596,2.515,4.596,5.854C245.022,82.534,238.384,87.249,235.124,87.249z M237.874,84.538
			c1.924-2.278,4.359-7.777,4.359-10.921c0-0.746-0.079-2.749-1.925-2.749c-3.417,0-7.11,8.721-7.11,12.728
			c0,1.453,0.551,2.553,1.926,2.553C236.105,86.148,237.049,85.519,237.874,84.538z"/>
	</g>
</g>
</svg>
